# xmcd
#
# Track frame offsets: 
#        150
#        10732
#        18462
#        28152
#        37077
#        47895
#        60590
#        68662
#        77990
#        87800
#        103245
#        106985
#
# Disc length: 1575 seconds
#
# Revision: 1
# Processed by: cddbd v1.5.2PL0 Copyright (c) Steve Scherf et al.
# Submitted via: ExactAudioCopy v0.99pb5
#
DISCID=9906250c
DTITLE=Statler Brothers - Flowers On The Wall
DYEAR=1966
DGENRE=Country
TTITLE0=Flowers On The Wall
TTITLE1=My Darling Hildegarde
TTITLE2=King Of The Road
TTITLE3=Memphis
TTITLE4=I'm Not Quite Through Crying
TTITLE5=My Reward
TTITLE6=This Ole House
TTITLE7=Billy Christian
TTITLE8=The Doodlin' Song
TTITLE9=Quite A Long, Long Time
TTITLE10=The Whiffenpoof Song
TTITLE11=I Still Miss Someone
EXTD=
EXTT0=
EXTT1=
EXTT2=
EXTT3=
EXTT4=
EXTT5=
EXTT6=
EXTT7=
EXTT8=
EXTT9=
EXTT10=
EXTT11=
PLAYORDER=
